# xmcd CD database file
#
# Track frame offsets:
#	183
#	14060
#	26538
#	38280
#	52495
#	66815
#	80345
#	94983
#	109030
#	122185
#	134788
#	148280
#	161868
#	174255
#	186490
#	199820
#	212963
#	226305
#	239518
#	251948
#	266175
#	279818
#	294025
#	307978
#
# Disc length: 4271 seconds
#
# Revision: 0
# Processed by: cddbd v1.4PL0 Copyright (c) Steve Scherf et al.
# Submitted via: CDex 1.50beta10
#
DISCID=7410ad18
DTITLE=Billie Holiday - The Voice Of Jazz - The Complete Recordings 1933-1940
DYEAR=1991
DGENRE=Jazz
TTITLE0=Everybody's Laughing
TTITLE1=Here It Is Tomorrow Again
TTITLE2=Say It With A Kiss
TTITLE3=April In My Heart
TTITLE4=April In My Heart
TTITLE5=I'll Never Fail On You
TTITLE6=They Say
TTITLE7=They Say
TTITLE8=You're So Desirable
TTITLE9=You're So Desirable
TTITLE10=You're Gonna See A Lot Of Me
TTITLE11=You're Gonna See A Lot Of Me
TTITLE12=Hello My Darling
TTITLE13=Hello My Darling
TTITLE14=Let's Dream In The Moonlight
TTITLE15=Let's Dream In The Moonlight
TTITLE16=That's All I Ask Of You
TTITLE17=That's All I Ask Of You
TTITLE18=Dream Of Life
TTITLE19=What Shall I Say
TTITLE20=It's Easy To Blame The Weather
TTITLE21=More Than You Know
TTITLE22=More Than You Know
TTITLE23=Sugar
EXTD=YEAR: 1991
EXTT0=
EXTT1=
EXTT2=
EXTT3=
EXTT4=
EXTT5=
EXTT6=
EXTT7=
EXTT8=
EXTT9=
EXTT10=
EXTT11=
EXTT12=
EXTT13=
EXTT14=
EXTT15=
EXTT16=
EXTT17=
EXTT18=
EXTT19=
EXTT20=
EXTT21=
EXTT22=
EXTT23=
PLAYORDER=
